<svg width="16" height="16" viewBox="0 0 16 16" fill="none"
  xmlns="http://www.w3.org/2000/svg">
  <path fill-rule="evenodd" clip-rule="evenodd" d="M8 1C6.34315 1 5 2.34315 5 4C5 5.65685 6.34315 7 8 7C9.65685 7 11 5.65685 11 4C11 2.34315 9.65685 1 8 1ZM6 4C6 2.89543 6.89543 2 8 2C9.10457 2 10 2.89543 10 4C10 5.10457 9.10457 6 8 6C6.89543 6 6 5.10457 6 4Z" fill="#424242"/>
  <path d="M8 8C7.44772 8 7 8.44772 7 9V14C7 14.5523 7.44772 15 8 15C8.55228 15 9 14.5523 9 14V9C9 8.44772 8.55228 8 8 8Z" fill="#424242"/>
</svg>